# xmcd
#
# Track frame offsets: 
#        150
#        12432
#        23782
#        35694
#        45329
#        55840
#        67553
#        77312
#        89278
#        98022
#        110525
#        120575
#        127962
#        141211
#        151411
#        163871
#        172169
#        179070
#        188645
#        195380
#        203840
#        219140
#        228275
#        242852
#        256081
#        265531
#        278778
#        288176
#        296243
#        305715
#
# Disc length: 4201 seconds
#
# Revision: 0
# Processed by: cddbd v1.5.2PL0 Copyright (c) Steve Scherf et al.
# Submitted via: ExactAudioCopy v1.3
#
DISCID=9b10671e
DTITLE=Stones River Ranch Boys - CD4_Instrumentals
DYEAR=2011
DGENRE=Country
TTITLE0=Orange Blossom Special
TTITLE1=Fiddlin' Around
TTITLE2=Streets Of Laredo
TTITLE3=Twin Fiddle Waltz
TTITLE4=Fire On The Mountain
TTITLE5=Blues Stay Away From Me
TTITLE6=Cielito Lindo
TTITLE7=Gathering Flowers From The Hillside
TTITLE8=Maple Leaf Rag
TTITLE9=Danny Boy
TTITLE10=Old Dan Tucker
TTITLE11=When You And I Were Young Maggie
TTITLE12=I'll Be All Smiles Tonight
TTITLE13=Yellow Rose Of Texas
TTITLE14=When The Work's All Done This Fall
TTITLE15=Sally Goodin'
TTITLE16=Handsome Molly
TTITLE17=Dixie
TTITLE18=John Henry
TTITLE19=Oh, Them Golden Sloppers
TTITLE20=Red Wing
TTITLE21=Spanish Two Step
TTITLE22=Under The Double Eagle
TTITLE23=Willow Garden
TTITLE24=Columbus Stockade Blues
TTITLE25=Black Mountain Rag
TTITLE26=Eighth Of January
TTITLE27=Old Joe Clark
TTITLE28=There Is A Tavern In The Town
TTITLE29=Sallor's Hornpipe
EXTD=
EXTT0=
EXTT1=
EXTT2=
EXTT3=
EXTT4=
EXTT5=
EXTT6=
EXTT7=
EXTT8=
EXTT9=
EXTT10=
EXTT11=
EXTT12=
EXTT13=
EXTT14=
EXTT15=
EXTT16=
EXTT17=
EXTT18=
EXTT19=
EXTT20=
EXTT21=
EXTT22=
EXTT23=
EXTT24=
EXTT25=
EXTT26=
EXTT27=
EXTT28=
EXTT29=
PLAYORDER=
